<?xml version="1.0" standalone="no"?><!DOCTYPE svg PUBLIC "-//W3C//DTD SVG 1.1//EN" "http://www.w3.org/Graphics/SVG/1.1/DTD/svg11.dtd"><svg t="1664357034903" class="icon" viewBox="0 0 1024 1024" version="1.1" xmlns="http://www.w3.org/2000/svg" p-id="4364" data-spm-anchor-id="a313x.7781069.0.i5" xmlns:xlink="http://www.w3.org/1999/xlink" width="128" height="128"><path d="M288.598 149.277c27.471-15.85 60.533-17.129 96.186-5.936 31.21 9.798 64.747 29.23 99.248 56.925 9.304 7.469 18.638 15.506 27.97 24.074 30.976-28.446 61.646-50.744 90.799-65.78l1.074-0.552 29.092 57.006c-23.397 11.94-49.195 30.535-75.902 54.843 21.59 23.807 42.85 50.16 63.332 78.55 34.838 3.546 68.296 8.79 99.706 15.6 6.815-31.14 10.143-59.509 9.883-83.883l-0.014-1.061 63.993-0.963c0.46 30.533-3.61 65.023-11.923 102.214 11.895 3.748 23.344 7.758 34.298 12.018 41.18 16.014 74.73 35.326 98.784 57.443C942.604 475.041 958 504.3 958 536c0 31.7-15.396 60.96-42.876 86.225-23.553 21.656-56.21 40.623-96.22 56.438l-2.564 1.005c-10.953 4.26-22.402 8.27-34.296 12.018 2.77 12.4 5.078 24.537 6.904 36.36 6.751 43.712 6.822 82.459-0.293 114.375-8.13 36.464-25.776 64.449-53.253 80.302-27.471 15.85-60.533 17.129-96.186 5.936-31.21-9.798-64.747-29.23-99.248-56.925-9.303-7.468-18.637-15.505-27.968-24.072-9.33 8.566-18.665 16.604-27.968 24.072-34.501 27.695-68.038 47.127-99.248 56.925-35.653 11.193-68.715 9.914-96.186-5.936-27.477-15.853-45.123-43.838-53.253-80.302-7.115-31.916-7.044-70.663-0.293-114.375 1.826-11.823 4.133-23.96 6.904-36.36-11.894-3.749-23.343-7.758-34.296-12.018-41.18-16.014-74.73-35.326-98.784-57.443C81.396 596.959 66 567.7 66 536c0-31.7 15.396-60.96 42.876-86.225 23.553-21.656 56.21-40.623 96.22-56.438l2.564-1.005c10.953-4.26 22.402-8.27 34.296-12.018-2.77-12.4-5.078-24.537-6.904-36.36-6.751-43.713-6.822-82.459 0.293-114.375 8.13-36.464 25.776-64.449 53.253-80.302z m15.295 558.715l-0.244 1.121c-2.12 9.799-3.906 19.378-5.347 28.702-10.85 70.25-0.588 116.28 22.28 129.473 22.88 13.201 67.921-0.94 123.386-45.463 7.615-6.113 15.281-12.682 22.97-19.678-21.591-23.809-42.854-50.164-63.336-78.555-34.838-3.545-68.298-8.79-99.709-15.6z m416.214 0l-0.938 0.203c-31.138 6.711-64.279 11.887-98.77 15.398-20.483 28.39-41.746 54.745-63.338 78.554 7.69 6.996 15.356 13.565 22.97 19.678 55.466 44.524 100.507 58.664 123.387 45.463 22.868-13.194 33.13-59.223 22.28-129.473-1.495-9.68-3.363-19.633-5.59-29.822zM488.19 728.746l0.953 1.166A784.224 784.224 0 0 0 512 756.561a785.534 785.534 0 0 0 23.812-27.815 1116.16 1116.16 0 0 1-47.623-0.001zM512 407c-24.822 0-49.264 0.88-73.08 2.584-13.38 19.77-26.348 40.472-38.74 61.921-12.403 21.468-23.858 43.047-34.291 64.495 10.433 21.448 21.888 43.027 34.29 64.495 12.403 21.467 25.375 42.17 38.745 61.922C462.739 664.12 487.18 665 512 665c24.82 0 49.261-0.88 73.075-2.583 13.371-19.753 26.343-40.455 38.745-61.922 12.388-21.443 23.846-43.016 34.294-64.492-10.435-21.45-21.89-43.029-34.294-64.498-12.402-21.467-25.374-42.17-38.744-61.922C561.261 407.88 536.82 407 512 407z m178.94 204.747l-0.291 0.527a1114.183 1114.183 0 0 1-23.486 40.632 782.43 782.43 0 0 0 35.953-6.72 786.482 786.482 0 0 0-12.176-34.439z m-357.879 0l-0.552 1.456a783.892 783.892 0 0 0-11.625 32.983 782.946 782.946 0 0 0 35.952 6.72 1119.414 1119.414 0 0 1-23.775-41.16z m432.05-169.664l-0.202 0.629c-9.809 30.41-21.928 61.708-36.137 93.292 14.333 31.86 26.519 63.377 36.343 93.91 9.725-3.113 19.08-6.414 28.029-9.894C859.312 594.288 894 562.395 894 536c0-26.395-34.688-58.288-100.856-84.02-8.95-3.48-18.306-6.782-28.033-9.897z m-506.226 0.002l-0.539 0.172c-9.532 3.064-18.707 6.307-27.49 9.723C164.688 477.712 130 509.605 130 536c0 26.395 34.688 58.288 100.856 84.02 8.949 3.48 18.304 6.781 28.03 9.896 9.823-30.537 22.01-62.055 36.343-93.915-14.332-31.861-26.52-63.38-36.344-93.916z m408.279-22.99l1.572 2.6a1113.28 1113.28 0 0 1 22.203 38.56 787.05 787.05 0 0 0 12.169-34.442 781.376 781.376 0 0 0-35.944-6.719z m-310.327-0.001l-1.146 0.188a781.579 781.579 0 0 0-34.807 6.532 786.482 786.482 0 0 0 12.176 34.439 1123.796 1123.796 0 0 1 23.777-41.16z m87.131-168.919c-55.465-44.524-100.506-58.664-123.386-45.463-22.868 13.194-33.13 59.223-22.28 129.473 1.495 9.68 3.363 19.633 5.59 29.822 31.411-6.809 64.87-12.054 99.706-15.6 20.457-28.354 41.715-54.708 63.342-78.551-7.69-6.998-15.356-13.568-22.972-19.68z m68.036 65.269l-0.781 0.87a787.164 787.164 0 0 0-23.036 26.941 1108.427 1108.427 0 0 1 47.624 0 784.57 784.57 0 0 0-23.807-27.811z" fill="#e6e6e6" p-id="4365" data-spm-anchor-id="a313x.7781069.0.i4" class="selected"></path><path d="M736 174m-90 0a90 90 0 1 0 180 0 90 90 0 1 0-180 0Z" fill="#0593fa" p-id="4366" data-spm-anchor-id="a313x.7781069.0.i2" class=""></path></svg>